<svg xmlns="http://www.w3.org/2000/svg" viewBox="0 0 64 64" fill="none">
  <!-- Background circle -->
  <circle cx="32" cy="32" r="30" fill="#6366f1"/>

  <!-- Image frame icon -->
  <rect x="14" y="18" width="36" height="28" rx="3" fill="white" opacity="0.95"/>
  <rect x="16" y="20" width="32" height="24" rx="2" fill="#e0e7ff"/>

  <!-- Mountain/landscape illustration (representing image) -->
  <path d="M 16 38 L 24 28 L 32 34 L 40 26 L 48 36 V 42 H 16 Z" fill="#6366f1" opacity="0.4"/>

  <!-- Sun/circle in image -->
  <circle cx="40" cy="26" r="3" fill="#fbbf24" opacity="0.8"/>

  <!-- Text lines (representing caption) -->
  <rect x="20" y="48" width="24" height="2" rx="1" fill="white" opacity="0.9"/>
  <rect x="20" y="52" width="18" height="2" rx="1" fill="white" opacity="0.7"/>

  <!-- AI spark/star accent -->
  <path d="M 54 12 L 55 14 L 57 15 L 55 16 L 54 18 L 53 16 L 51 15 L 53 14 Z" fill="#fbbf24"/>
  <path d="M 48 10 L 48.5 11 L 49.5 11.5 L 48.5 12 L 48 13 L 47.5 12 L 46.5 11.5 L 47.5 11 Z" fill="#fbbf24" opacity="0.7"/>
</svg>
